# xmcd CD database file
#
# Track frame offsets:
#	150
#	6195
#	21479
#	39892
#	59095
#	87139
#	103603
#	125624
#	140166
#	164202
#	182330
#	199949
#	216335
#
# Disc length: 3158 seconds
#
# Revision: 0
# Processed by: cddbd v1.4PL0 Copyright (c) Steve Scherf et al.
# Submitted via: CDex 1.50
#
DISCID=c10c540d
DTITLE=Kenna - new sacred cow
DYEAR=2003
DGENRE=New Age
TTITLE0=within earshot
TTITLE1=freetime
TTITLE2=man fading
TTITLE3=sunday after you
TTITLE4=vexed and glorious a better control
TTITLE5=red man
TTITLE6=hell bent
TTITLE7=yeneh ababa (rose)
TTITLE8=war in me
TTITLE9=new sacred cow
TTITLE10=i'm gone
TTITLE11=siren
TTITLE12=love/hate sensation
EXTD=YEAR: 2003
EXTT0=
EXTT1=
EXTT2=
EXTT3=
EXTT4=
EXTT5=
EXTT6=
EXTT7=
EXTT8=
EXTT9=
EXTT10=
EXTT11=
EXTT12=
PLAYORDER=
